<mxfile host="Electron" agent="Mozilla/5.0 (Windows NT 10.0; Win64; x64) AppleWebKit/537.36 (KHTML, like Gecko) draw.io/26.0.16 Chrome/132.0.6834.196 Electron/34.2.0 Safari/537.36" version="26.0.16">
  <diagram name="Page-1" id="gaOiYeLSS0fIoomRk49V">
    <mxGraphModel dx="1770" dy="775" grid="1" gridSize="10" guides="1" tooltips="1" connect="1" arrows="1" fold="1" page="1" pageScale="1" pageWidth="570" pageHeight="940" math="0" shadow="0">
      <root>
        <mxCell id="0" />
        <mxCell id="1" parent="0" />
        <mxCell id="w7caCeNGgn6BqTHNLdJ1-1" value="" style="shape=table;startSize=0;container=1;collapsible=0;childLayout=tableLayout;fillColor=none;" vertex="1" parent="1">
          <mxGeometry x="-300" y="180" width="1000" height="140" as="geometry" />
        </mxCell>
        <mxCell id="w7caCeNGgn6BqTHNLdJ1-2" value="" style="shape=tableRow;horizontal=0;startSize=0;swimlaneHead=0;swimlaneBody=0;strokeColor=inherit;top=0;left=0;bottom=0;right=0;collapsible=0;dropTarget=0;fillColor=none;points=[[0,0.5],[1,0.5]];portConstraint=eastwest;" vertex="1" parent="w7caCeNGgn6BqTHNLdJ1-1">
          <mxGeometry width="1000" height="31" as="geometry" />
        </mxCell>
        <mxCell id="w7caCeNGgn6BqTHNLdJ1-3" value="Letter" style="shape=partialRectangle;html=1;whiteSpace=wrap;connectable=0;strokeColor=inherit;overflow=hidden;fillColor=none;top=0;left=0;bottom=0;right=0;pointerEvents=1;" vertex="1" parent="w7caCeNGgn6BqTHNLdJ1-2">
          <mxGeometry width="56" height="31" as="geometry">
            <mxRectangle width="56" height="31" as="alternateBounds" />
          </mxGeometry>
        </mxCell>
        <mxCell id="w7caCeNGgn6BqTHNLdJ1-4" value="a" style="shape=partialRectangle;html=1;whiteSpace=wrap;connectable=0;strokeColor=inherit;overflow=hidden;fillColor=none;top=0;left=0;bottom=0;right=0;pointerEvents=1;" vertex="1" parent="w7caCeNGgn6BqTHNLdJ1-2">
          <mxGeometry x="56" width="56" height="31" as="geometry">
            <mxRectangle width="56" height="31" as="alternateBounds" />
          </mxGeometry>
        </mxCell>
        <mxCell id="w7caCeNGgn6BqTHNLdJ1-5" value="b" style="shape=partialRectangle;html=1;whiteSpace=wrap;connectable=0;strokeColor=inherit;overflow=hidden;fillColor=none;top=0;left=0;bottom=0;right=0;pointerEvents=1;" vertex="1" parent="w7caCeNGgn6BqTHNLdJ1-2">
          <mxGeometry x="112" width="54" height="31" as="geometry">
            <mxRectangle width="54" height="31" as="alternateBounds" />
          </mxGeometry>
        </mxCell>
        <mxCell id="w7caCeNGgn6BqTHNLdJ1-6" value="c" style="shape=partialRectangle;html=1;whiteSpace=wrap;connectable=0;strokeColor=inherit;overflow=hidden;fillColor=none;top=0;left=0;bottom=0;right=0;pointerEvents=1;" vertex="1" parent="w7caCeNGgn6BqTHNLdJ1-2">
          <mxGeometry x="166" width="56" height="31" as="geometry">
            <mxRectangle width="56" height="31" as="alternateBounds" />
          </mxGeometry>
        </mxCell>
        <mxCell id="w7caCeNGgn6BqTHNLdJ1-7" value="d" style="shape=partialRectangle;html=1;whiteSpace=wrap;connectable=0;strokeColor=inherit;overflow=hidden;fillColor=none;top=0;left=0;bottom=0;right=0;pointerEvents=1;" vertex="1" parent="w7caCeNGgn6BqTHNLdJ1-2">
          <mxGeometry x="222" width="56" height="31" as="geometry">
            <mxRectangle width="56" height="31" as="alternateBounds" />
          </mxGeometry>
        </mxCell>
        <mxCell id="w7caCeNGgn6BqTHNLdJ1-8" value="e" style="shape=partialRectangle;html=1;whiteSpace=wrap;connectable=0;strokeColor=inherit;overflow=hidden;fillColor=none;top=0;left=0;bottom=0;right=0;pointerEvents=1;" vertex="1" parent="w7caCeNGgn6BqTHNLdJ1-2">
          <mxGeometry x="278" width="56" height="31" as="geometry">
            <mxRectangle width="56" height="31" as="alternateBounds" />
          </mxGeometry>
        </mxCell>
        <mxCell id="w7caCeNGgn6BqTHNLdJ1-9" value="f" style="shape=partialRectangle;html=1;whiteSpace=wrap;connectable=0;strokeColor=inherit;overflow=hidden;fillColor=none;top=0;left=0;bottom=0;right=0;pointerEvents=1;" vertex="1" parent="w7caCeNGgn6BqTHNLdJ1-2">
          <mxGeometry x="334" width="54" height="31" as="geometry">
            <mxRectangle width="54" height="31" as="alternateBounds" />
          </mxGeometry>
        </mxCell>
        <mxCell id="w7caCeNGgn6BqTHNLdJ1-10" value="g" style="shape=partialRectangle;html=1;whiteSpace=wrap;connectable=0;strokeColor=inherit;overflow=hidden;fillColor=none;top=0;left=0;bottom=0;right=0;pointerEvents=1;" vertex="1" parent="w7caCeNGgn6BqTHNLdJ1-2">
          <mxGeometry x="388" width="56" height="31" as="geometry">
            <mxRectangle width="56" height="31" as="alternateBounds" />
          </mxGeometry>
        </mxCell>
        <mxCell id="w7caCeNGgn6BqTHNLdJ1-11" value="h" style="shape=partialRectangle;html=1;whiteSpace=wrap;connectable=0;strokeColor=inherit;overflow=hidden;fillColor=none;top=0;left=0;bottom=0;right=0;pointerEvents=1;" vertex="1" parent="w7caCeNGgn6BqTHNLdJ1-2">
          <mxGeometry x="444" width="56" height="31" as="geometry">
            <mxRectangle width="56" height="31" as="alternateBounds" />
          </mxGeometry>
        </mxCell>
        <mxCell id="w7caCeNGgn6BqTHNLdJ1-12" value="i" style="shape=partialRectangle;html=1;whiteSpace=wrap;connectable=0;strokeColor=inherit;overflow=hidden;fillColor=none;top=0;left=0;bottom=0;right=0;pointerEvents=1;" vertex="1" parent="w7caCeNGgn6BqTHNLdJ1-2">
          <mxGeometry x="500" width="56" height="31" as="geometry">
            <mxRectangle width="56" height="31" as="alternateBounds" />
          </mxGeometry>
        </mxCell>
        <mxCell id="w7caCeNGgn6BqTHNLdJ1-13" value="j" style="shape=partialRectangle;html=1;whiteSpace=wrap;connectable=0;strokeColor=inherit;overflow=hidden;fillColor=none;top=0;left=0;bottom=0;right=0;pointerEvents=1;" vertex="1" parent="w7caCeNGgn6BqTHNLdJ1-2">
          <mxGeometry x="556" width="56" height="31" as="geometry">
            <mxRectangle width="56" height="31" as="alternateBounds" />
          </mxGeometry>
        </mxCell>
        <mxCell id="w7caCeNGgn6BqTHNLdJ1-14" value="k" style="shape=partialRectangle;html=1;whiteSpace=wrap;connectable=0;strokeColor=inherit;overflow=hidden;fillColor=none;top=0;left=0;bottom=0;right=0;pointerEvents=1;" vertex="1" parent="w7caCeNGgn6BqTHNLdJ1-2">
          <mxGeometry x="612" width="54" height="31" as="geometry">
            <mxRectangle width="54" height="31" as="alternateBounds" />
          </mxGeometry>
        </mxCell>
        <mxCell id="w7caCeNGgn6BqTHNLdJ1-15" value="l" style="shape=partialRectangle;html=1;whiteSpace=wrap;connectable=0;strokeColor=inherit;overflow=hidden;fillColor=none;top=0;left=0;bottom=0;right=0;pointerEvents=1;" vertex="1" parent="w7caCeNGgn6BqTHNLdJ1-2">
          <mxGeometry x="666" width="56" height="31" as="geometry">
            <mxRectangle width="56" height="31" as="alternateBounds" />
          </mxGeometry>
        </mxCell>
        <mxCell id="w7caCeNGgn6BqTHNLdJ1-16" value="m" style="shape=partialRectangle;html=1;whiteSpace=wrap;connectable=0;strokeColor=inherit;overflow=hidden;fillColor=none;top=0;left=0;bottom=0;right=0;pointerEvents=1;" vertex="1" parent="w7caCeNGgn6BqTHNLdJ1-2">
          <mxGeometry x="722" width="56" height="31" as="geometry">
            <mxRectangle width="56" height="31" as="alternateBounds" />
          </mxGeometry>
        </mxCell>
        <mxCell id="w7caCeNGgn6BqTHNLdJ1-17" value="n" style="shape=partialRectangle;html=1;whiteSpace=wrap;connectable=0;strokeColor=inherit;overflow=hidden;fillColor=none;top=0;left=0;bottom=0;right=0;pointerEvents=1;" vertex="1" parent="w7caCeNGgn6BqTHNLdJ1-2">
          <mxGeometry x="778" width="56" height="31" as="geometry">
            <mxRectangle width="56" height="31" as="alternateBounds" />
          </mxGeometry>
        </mxCell>
        <mxCell id="w7caCeNGgn6BqTHNLdJ1-18" value="o" style="shape=partialRectangle;html=1;whiteSpace=wrap;connectable=0;strokeColor=inherit;overflow=hidden;fillColor=none;top=0;left=0;bottom=0;right=0;pointerEvents=1;" vertex="1" parent="w7caCeNGgn6BqTHNLdJ1-2">
          <mxGeometry x="834" width="54" height="31" as="geometry">
            <mxRectangle width="54" height="31" as="alternateBounds" />
          </mxGeometry>
        </mxCell>
        <mxCell id="w7caCeNGgn6BqTHNLdJ1-19" value="p" style="shape=partialRectangle;html=1;whiteSpace=wrap;connectable=0;strokeColor=inherit;overflow=hidden;fillColor=none;top=0;left=0;bottom=0;right=0;pointerEvents=1;" vertex="1" parent="w7caCeNGgn6BqTHNLdJ1-2">
          <mxGeometry x="888" width="56" height="31" as="geometry">
            <mxRectangle width="56" height="31" as="alternateBounds" />
          </mxGeometry>
        </mxCell>
        <mxCell id="w7caCeNGgn6BqTHNLdJ1-92" value="q" style="shape=partialRectangle;html=1;whiteSpace=wrap;connectable=0;strokeColor=inherit;overflow=hidden;fillColor=none;top=0;left=0;bottom=0;right=0;pointerEvents=1;" vertex="1" parent="w7caCeNGgn6BqTHNLdJ1-2">
          <mxGeometry x="944" width="56" height="31" as="geometry">
            <mxRectangle width="56" height="31" as="alternateBounds" />
          </mxGeometry>
        </mxCell>
        <mxCell id="w7caCeNGgn6BqTHNLdJ1-20" value="" style="shape=tableRow;horizontal=0;startSize=0;swimlaneHead=0;swimlaneBody=0;strokeColor=inherit;top=0;left=0;bottom=0;right=0;collapsible=0;dropTarget=0;fillColor=none;points=[[0,0.5],[1,0.5]];portConstraint=eastwest;" vertex="1" parent="w7caCeNGgn6BqTHNLdJ1-1">
          <mxGeometry y="31" width="1000" height="32" as="geometry" />
        </mxCell>
        <mxCell id="w7caCeNGgn6BqTHNLdJ1-21" value="Code" style="shape=partialRectangle;html=1;whiteSpace=wrap;connectable=0;strokeColor=inherit;overflow=hidden;fillColor=none;top=0;left=0;bottom=0;right=0;pointerEvents=1;" vertex="1" parent="w7caCeNGgn6BqTHNLdJ1-20">
          <mxGeometry width="56" height="32" as="geometry">
            <mxRectangle width="56" height="32" as="alternateBounds" />
          </mxGeometry>
        </mxCell>
        <mxCell id="w7caCeNGgn6BqTHNLdJ1-22" value="0" style="shape=partialRectangle;html=1;whiteSpace=wrap;connectable=0;strokeColor=inherit;overflow=hidden;fillColor=none;top=0;left=0;bottom=0;right=0;pointerEvents=1;" vertex="1" parent="w7caCeNGgn6BqTHNLdJ1-20">
          <mxGeometry x="56" width="56" height="32" as="geometry">
            <mxRectangle width="56" height="32" as="alternateBounds" />
          </mxGeometry>
        </mxCell>
        <mxCell id="w7caCeNGgn6BqTHNLdJ1-23" value="1" style="shape=partialRectangle;html=1;whiteSpace=wrap;connectable=0;strokeColor=inherit;overflow=hidden;fillColor=none;top=0;left=0;bottom=0;right=0;pointerEvents=1;" vertex="1" parent="w7caCeNGgn6BqTHNLdJ1-20">
          <mxGeometry x="112" width="54" height="32" as="geometry">
            <mxRectangle width="54" height="32" as="alternateBounds" />
          </mxGeometry>
        </mxCell>
        <mxCell id="w7caCeNGgn6BqTHNLdJ1-24" value="2" style="shape=partialRectangle;html=1;whiteSpace=wrap;connectable=0;strokeColor=inherit;overflow=hidden;fillColor=none;top=0;left=0;bottom=0;right=0;pointerEvents=1;" vertex="1" parent="w7caCeNGgn6BqTHNLdJ1-20">
          <mxGeometry x="166" width="56" height="32" as="geometry">
            <mxRectangle width="56" height="32" as="alternateBounds" />
          </mxGeometry>
        </mxCell>
        <mxCell id="w7caCeNGgn6BqTHNLdJ1-25" value="3" style="shape=partialRectangle;html=1;whiteSpace=wrap;connectable=0;strokeColor=inherit;overflow=hidden;fillColor=none;top=0;left=0;bottom=0;right=0;pointerEvents=1;" vertex="1" parent="w7caCeNGgn6BqTHNLdJ1-20">
          <mxGeometry x="222" width="56" height="32" as="geometry">
            <mxRectangle width="56" height="32" as="alternateBounds" />
          </mxGeometry>
        </mxCell>
        <mxCell id="w7caCeNGgn6BqTHNLdJ1-26" value="4" style="shape=partialRectangle;html=1;whiteSpace=wrap;connectable=0;strokeColor=inherit;overflow=hidden;fillColor=none;top=0;left=0;bottom=0;right=0;pointerEvents=1;" vertex="1" parent="w7caCeNGgn6BqTHNLdJ1-20">
          <mxGeometry x="278" width="56" height="32" as="geometry">
            <mxRectangle width="56" height="32" as="alternateBounds" />
          </mxGeometry>
        </mxCell>
        <mxCell id="w7caCeNGgn6BqTHNLdJ1-27" value="5" style="shape=partialRectangle;html=1;whiteSpace=wrap;connectable=0;strokeColor=inherit;overflow=hidden;fillColor=none;top=0;left=0;bottom=0;right=0;pointerEvents=1;" vertex="1" parent="w7caCeNGgn6BqTHNLdJ1-20">
          <mxGeometry x="334" width="54" height="32" as="geometry">
            <mxRectangle width="54" height="32" as="alternateBounds" />
          </mxGeometry>
        </mxCell>
        <mxCell id="w7caCeNGgn6BqTHNLdJ1-28" value="6" style="shape=partialRectangle;html=1;whiteSpace=wrap;connectable=0;strokeColor=inherit;overflow=hidden;fillColor=none;top=0;left=0;bottom=0;right=0;pointerEvents=1;" vertex="1" parent="w7caCeNGgn6BqTHNLdJ1-20">
          <mxGeometry x="388" width="56" height="32" as="geometry">
            <mxRectangle width="56" height="32" as="alternateBounds" />
          </mxGeometry>
        </mxCell>
        <mxCell id="w7caCeNGgn6BqTHNLdJ1-29" value="7" style="shape=partialRectangle;html=1;whiteSpace=wrap;connectable=0;strokeColor=inherit;overflow=hidden;fillColor=none;top=0;left=0;bottom=0;right=0;pointerEvents=1;" vertex="1" parent="w7caCeNGgn6BqTHNLdJ1-20">
          <mxGeometry x="444" width="56" height="32" as="geometry">
            <mxRectangle width="56" height="32" as="alternateBounds" />
          </mxGeometry>
        </mxCell>
        <mxCell id="w7caCeNGgn6BqTHNLdJ1-30" value="8" style="shape=partialRectangle;html=1;whiteSpace=wrap;connectable=0;strokeColor=inherit;overflow=hidden;fillColor=none;top=0;left=0;bottom=0;right=0;pointerEvents=1;" vertex="1" parent="w7caCeNGgn6BqTHNLdJ1-20">
          <mxGeometry x="500" width="56" height="32" as="geometry">
            <mxRectangle width="56" height="32" as="alternateBounds" />
          </mxGeometry>
        </mxCell>
        <mxCell id="w7caCeNGgn6BqTHNLdJ1-31" value="9" style="shape=partialRectangle;html=1;whiteSpace=wrap;connectable=0;strokeColor=inherit;overflow=hidden;fillColor=none;top=0;left=0;bottom=0;right=0;pointerEvents=1;" vertex="1" parent="w7caCeNGgn6BqTHNLdJ1-20">
          <mxGeometry x="556" width="56" height="32" as="geometry">
            <mxRectangle width="56" height="32" as="alternateBounds" />
          </mxGeometry>
        </mxCell>
        <mxCell id="w7caCeNGgn6BqTHNLdJ1-32" value="10" style="shape=partialRectangle;html=1;whiteSpace=wrap;connectable=0;strokeColor=inherit;overflow=hidden;fillColor=none;top=0;left=0;bottom=0;right=0;pointerEvents=1;" vertex="1" parent="w7caCeNGgn6BqTHNLdJ1-20">
          <mxGeometry x="612" width="54" height="32" as="geometry">
            <mxRectangle width="54" height="32" as="alternateBounds" />
          </mxGeometry>
        </mxCell>
        <mxCell id="w7caCeNGgn6BqTHNLdJ1-33" value="11" style="shape=partialRectangle;html=1;whiteSpace=wrap;connectable=0;strokeColor=inherit;overflow=hidden;fillColor=none;top=0;left=0;bottom=0;right=0;pointerEvents=1;" vertex="1" parent="w7caCeNGgn6BqTHNLdJ1-20">
          <mxGeometry x="666" width="56" height="32" as="geometry">
            <mxRectangle width="56" height="32" as="alternateBounds" />
          </mxGeometry>
        </mxCell>
        <mxCell id="w7caCeNGgn6BqTHNLdJ1-34" value="12" style="shape=partialRectangle;html=1;whiteSpace=wrap;connectable=0;strokeColor=inherit;overflow=hidden;fillColor=none;top=0;left=0;bottom=0;right=0;pointerEvents=1;" vertex="1" parent="w7caCeNGgn6BqTHNLdJ1-20">
          <mxGeometry x="722" width="56" height="32" as="geometry">
            <mxRectangle width="56" height="32" as="alternateBounds" />
          </mxGeometry>
        </mxCell>
        <mxCell id="w7caCeNGgn6BqTHNLdJ1-35" value="13" style="shape=partialRectangle;html=1;whiteSpace=wrap;connectable=0;strokeColor=inherit;overflow=hidden;fillColor=none;top=0;left=0;bottom=0;right=0;pointerEvents=1;" vertex="1" parent="w7caCeNGgn6BqTHNLdJ1-20">
          <mxGeometry x="778" width="56" height="32" as="geometry">
            <mxRectangle width="56" height="32" as="alternateBounds" />
          </mxGeometry>
        </mxCell>
        <mxCell id="w7caCeNGgn6BqTHNLdJ1-36" value="14" style="shape=partialRectangle;html=1;whiteSpace=wrap;connectable=0;strokeColor=inherit;overflow=hidden;fillColor=none;top=0;left=0;bottom=0;right=0;pointerEvents=1;" vertex="1" parent="w7caCeNGgn6BqTHNLdJ1-20">
          <mxGeometry x="834" width="54" height="32" as="geometry">
            <mxRectangle width="54" height="32" as="alternateBounds" />
          </mxGeometry>
        </mxCell>
        <mxCell id="w7caCeNGgn6BqTHNLdJ1-37" value="15" style="shape=partialRectangle;html=1;whiteSpace=wrap;connectable=0;strokeColor=inherit;overflow=hidden;fillColor=none;top=0;left=0;bottom=0;right=0;pointerEvents=1;" vertex="1" parent="w7caCeNGgn6BqTHNLdJ1-20">
          <mxGeometry x="888" width="56" height="32" as="geometry">
            <mxRectangle width="56" height="32" as="alternateBounds" />
          </mxGeometry>
        </mxCell>
        <mxCell id="w7caCeNGgn6BqTHNLdJ1-93" value="16" style="shape=partialRectangle;html=1;whiteSpace=wrap;connectable=0;strokeColor=inherit;overflow=hidden;fillColor=none;top=0;left=0;bottom=0;right=0;pointerEvents=1;" vertex="1" parent="w7caCeNGgn6BqTHNLdJ1-20">
          <mxGeometry x="944" width="56" height="32" as="geometry">
            <mxRectangle width="56" height="32" as="alternateBounds" />
          </mxGeometry>
        </mxCell>
        <mxCell id="w7caCeNGgn6BqTHNLdJ1-38" value="" style="shape=tableRow;horizontal=0;startSize=0;swimlaneHead=0;swimlaneBody=0;strokeColor=inherit;top=0;left=0;bottom=0;right=0;collapsible=0;dropTarget=0;fillColor=none;points=[[0,0.5],[1,0.5]];portConstraint=eastwest;" vertex="1" parent="w7caCeNGgn6BqTHNLdJ1-1">
          <mxGeometry y="63" width="1000" height="14" as="geometry" />
        </mxCell>
        <mxCell id="w7caCeNGgn6BqTHNLdJ1-39" value="" style="shape=partialRectangle;html=1;whiteSpace=wrap;connectable=0;strokeColor=#666666;overflow=hidden;fillColor=#f5f5f5;top=0;left=0;bottom=0;right=0;pointerEvents=1;fontColor=#333333;" vertex="1" parent="w7caCeNGgn6BqTHNLdJ1-38">
          <mxGeometry width="56" height="14" as="geometry">
            <mxRectangle width="56" height="14" as="alternateBounds" />
          </mxGeometry>
        </mxCell>
        <mxCell id="w7caCeNGgn6BqTHNLdJ1-40" value="" style="shape=partialRectangle;html=1;whiteSpace=wrap;connectable=0;strokeColor=#666666;overflow=hidden;fillColor=#f5f5f5;top=0;left=0;bottom=0;right=0;pointerEvents=1;fontColor=#333333;" vertex="1" parent="w7caCeNGgn6BqTHNLdJ1-38">
          <mxGeometry x="56" width="56" height="14" as="geometry">
            <mxRectangle width="56" height="14" as="alternateBounds" />
          </mxGeometry>
        </mxCell>
        <mxCell id="w7caCeNGgn6BqTHNLdJ1-41" value="" style="shape=partialRectangle;html=1;whiteSpace=wrap;connectable=0;strokeColor=#666666;overflow=hidden;fillColor=#f5f5f5;top=0;left=0;bottom=0;right=0;pointerEvents=1;fontColor=#333333;" vertex="1" parent="w7caCeNGgn6BqTHNLdJ1-38">
          <mxGeometry x="112" width="54" height="14" as="geometry">
            <mxRectangle width="54" height="14" as="alternateBounds" />
          </mxGeometry>
        </mxCell>
        <mxCell id="w7caCeNGgn6BqTHNLdJ1-42" value="" style="shape=partialRectangle;html=1;whiteSpace=wrap;connectable=0;strokeColor=#666666;overflow=hidden;fillColor=#f5f5f5;top=0;left=0;bottom=0;right=0;pointerEvents=1;fontColor=#333333;" vertex="1" parent="w7caCeNGgn6BqTHNLdJ1-38">
          <mxGeometry x="166" width="56" height="14" as="geometry">
            <mxRectangle width="56" height="14" as="alternateBounds" />
          </mxGeometry>
        </mxCell>
        <mxCell id="w7caCeNGgn6BqTHNLdJ1-43" value="" style="shape=partialRectangle;html=1;whiteSpace=wrap;connectable=0;strokeColor=#666666;overflow=hidden;fillColor=#f5f5f5;top=0;left=0;bottom=0;right=0;pointerEvents=1;fontColor=#333333;" vertex="1" parent="w7caCeNGgn6BqTHNLdJ1-38">
          <mxGeometry x="222" width="56" height="14" as="geometry">
            <mxRectangle width="56" height="14" as="alternateBounds" />
          </mxGeometry>
        </mxCell>
        <mxCell id="w7caCeNGgn6BqTHNLdJ1-44" value="" style="shape=partialRectangle;html=1;whiteSpace=wrap;connectable=0;strokeColor=#666666;overflow=hidden;fillColor=#f5f5f5;top=0;left=0;bottom=0;right=0;pointerEvents=1;fontColor=#333333;" vertex="1" parent="w7caCeNGgn6BqTHNLdJ1-38">
          <mxGeometry x="278" width="56" height="14" as="geometry">
            <mxRectangle width="56" height="14" as="alternateBounds" />
          </mxGeometry>
        </mxCell>
        <mxCell id="w7caCeNGgn6BqTHNLdJ1-45" value="" style="shape=partialRectangle;html=1;whiteSpace=wrap;connectable=0;strokeColor=#666666;overflow=hidden;fillColor=#f5f5f5;top=0;left=0;bottom=0;right=0;pointerEvents=1;fontColor=#333333;" vertex="1" parent="w7caCeNGgn6BqTHNLdJ1-38">
          <mxGeometry x="334" width="54" height="14" as="geometry">
            <mxRectangle width="54" height="14" as="alternateBounds" />
          </mxGeometry>
        </mxCell>
        <mxCell id="w7caCeNGgn6BqTHNLdJ1-46" value="" style="shape=partialRectangle;html=1;whiteSpace=wrap;connectable=0;strokeColor=#666666;overflow=hidden;fillColor=#f5f5f5;top=0;left=0;bottom=0;right=0;pointerEvents=1;fontColor=#333333;" vertex="1" parent="w7caCeNGgn6BqTHNLdJ1-38">
          <mxGeometry x="388" width="56" height="14" as="geometry">
            <mxRectangle width="56" height="14" as="alternateBounds" />
          </mxGeometry>
        </mxCell>
        <mxCell id="w7caCeNGgn6BqTHNLdJ1-47" value="" style="shape=partialRectangle;html=1;whiteSpace=wrap;connectable=0;strokeColor=#666666;overflow=hidden;fillColor=#f5f5f5;top=0;left=0;bottom=0;right=0;pointerEvents=1;fontColor=#333333;" vertex="1" parent="w7caCeNGgn6BqTHNLdJ1-38">
          <mxGeometry x="444" width="56" height="14" as="geometry">
            <mxRectangle width="56" height="14" as="alternateBounds" />
          </mxGeometry>
        </mxCell>
        <mxCell id="w7caCeNGgn6BqTHNLdJ1-48" value="" style="shape=partialRectangle;html=1;whiteSpace=wrap;connectable=0;strokeColor=#666666;overflow=hidden;fillColor=#f5f5f5;top=0;left=0;bottom=0;right=0;pointerEvents=1;fontColor=#333333;" vertex="1" parent="w7caCeNGgn6BqTHNLdJ1-38">
          <mxGeometry x="500" width="56" height="14" as="geometry">
            <mxRectangle width="56" height="14" as="alternateBounds" />
          </mxGeometry>
        </mxCell>
        <mxCell id="w7caCeNGgn6BqTHNLdJ1-49" value="" style="shape=partialRectangle;html=1;whiteSpace=wrap;connectable=0;strokeColor=#666666;overflow=hidden;fillColor=#f5f5f5;top=0;left=0;bottom=0;right=0;pointerEvents=1;fontColor=#333333;" vertex="1" parent="w7caCeNGgn6BqTHNLdJ1-38">
          <mxGeometry x="556" width="56" height="14" as="geometry">
            <mxRectangle width="56" height="14" as="alternateBounds" />
          </mxGeometry>
        </mxCell>
        <mxCell id="w7caCeNGgn6BqTHNLdJ1-50" value="" style="shape=partialRectangle;html=1;whiteSpace=wrap;connectable=0;strokeColor=#666666;overflow=hidden;fillColor=#f5f5f5;top=0;left=0;bottom=0;right=0;pointerEvents=1;fontColor=#333333;" vertex="1" parent="w7caCeNGgn6BqTHNLdJ1-38">
          <mxGeometry x="612" width="54" height="14" as="geometry">
            <mxRectangle width="54" height="14" as="alternateBounds" />
          </mxGeometry>
        </mxCell>
        <mxCell id="w7caCeNGgn6BqTHNLdJ1-51" value="" style="shape=partialRectangle;html=1;whiteSpace=wrap;connectable=0;strokeColor=#666666;overflow=hidden;fillColor=#f5f5f5;top=0;left=0;bottom=0;right=0;pointerEvents=1;fontColor=#333333;" vertex="1" parent="w7caCeNGgn6BqTHNLdJ1-38">
          <mxGeometry x="666" width="56" height="14" as="geometry">
            <mxRectangle width="56" height="14" as="alternateBounds" />
          </mxGeometry>
        </mxCell>
        <mxCell id="w7caCeNGgn6BqTHNLdJ1-52" value="" style="shape=partialRectangle;html=1;whiteSpace=wrap;connectable=0;strokeColor=#666666;overflow=hidden;fillColor=#f5f5f5;top=0;left=0;bottom=0;right=0;pointerEvents=1;fontColor=#333333;" vertex="1" parent="w7caCeNGgn6BqTHNLdJ1-38">
          <mxGeometry x="722" width="56" height="14" as="geometry">
            <mxRectangle width="56" height="14" as="alternateBounds" />
          </mxGeometry>
        </mxCell>
        <mxCell id="w7caCeNGgn6BqTHNLdJ1-53" value="" style="shape=partialRectangle;html=1;whiteSpace=wrap;connectable=0;strokeColor=#666666;overflow=hidden;fillColor=#f5f5f5;top=0;left=0;bottom=0;right=0;pointerEvents=1;fontColor=#333333;" vertex="1" parent="w7caCeNGgn6BqTHNLdJ1-38">
          <mxGeometry x="778" width="56" height="14" as="geometry">
            <mxRectangle width="56" height="14" as="alternateBounds" />
          </mxGeometry>
        </mxCell>
        <mxCell id="w7caCeNGgn6BqTHNLdJ1-54" value="" style="shape=partialRectangle;html=1;whiteSpace=wrap;connectable=0;strokeColor=#666666;overflow=hidden;fillColor=#f5f5f5;top=0;left=0;bottom=0;right=0;pointerEvents=1;fontColor=#333333;" vertex="1" parent="w7caCeNGgn6BqTHNLdJ1-38">
          <mxGeometry x="834" width="54" height="14" as="geometry">
            <mxRectangle width="54" height="14" as="alternateBounds" />
          </mxGeometry>
        </mxCell>
        <mxCell id="w7caCeNGgn6BqTHNLdJ1-55" value="" style="shape=partialRectangle;html=1;whiteSpace=wrap;connectable=0;strokeColor=#666666;overflow=hidden;fillColor=#f5f5f5;top=0;left=0;bottom=0;right=0;pointerEvents=1;fontColor=#333333;" vertex="1" parent="w7caCeNGgn6BqTHNLdJ1-38">
          <mxGeometry x="888" width="56" height="14" as="geometry">
            <mxRectangle width="56" height="14" as="alternateBounds" />
          </mxGeometry>
        </mxCell>
        <mxCell id="w7caCeNGgn6BqTHNLdJ1-94" style="shape=partialRectangle;html=1;whiteSpace=wrap;connectable=0;strokeColor=#666666;overflow=hidden;fillColor=#f5f5f5;top=0;left=0;bottom=0;right=0;pointerEvents=1;fontColor=#333333;" vertex="1" parent="w7caCeNGgn6BqTHNLdJ1-38">
          <mxGeometry x="944" width="56" height="14" as="geometry">
            <mxRectangle width="56" height="14" as="alternateBounds" />
          </mxGeometry>
        </mxCell>
        <mxCell id="w7caCeNGgn6BqTHNLdJ1-56" value="" style="shape=tableRow;horizontal=0;startSize=0;swimlaneHead=0;swimlaneBody=0;strokeColor=inherit;top=0;left=0;bottom=0;right=0;collapsible=0;dropTarget=0;fillColor=none;points=[[0,0.5],[1,0.5]];portConstraint=eastwest;" vertex="1" parent="w7caCeNGgn6BqTHNLdJ1-1">
          <mxGeometry y="77" width="1000" height="32" as="geometry" />
        </mxCell>
        <mxCell id="w7caCeNGgn6BqTHNLdJ1-57" value="Letter" style="shape=partialRectangle;html=1;whiteSpace=wrap;connectable=0;strokeColor=inherit;overflow=hidden;fillColor=none;top=0;left=0;bottom=0;right=0;pointerEvents=1;" vertex="1" parent="w7caCeNGgn6BqTHNLdJ1-56">
          <mxGeometry width="56" height="32" as="geometry">
            <mxRectangle width="56" height="32" as="alternateBounds" />
          </mxGeometry>
        </mxCell>
        <mxCell id="w7caCeNGgn6BqTHNLdJ1-58" value="r" style="shape=partialRectangle;html=1;whiteSpace=wrap;connectable=0;strokeColor=inherit;overflow=hidden;fillColor=none;top=0;left=0;bottom=0;right=0;pointerEvents=1;" vertex="1" parent="w7caCeNGgn6BqTHNLdJ1-56">
          <mxGeometry x="56" width="56" height="32" as="geometry">
            <mxRectangle width="56" height="32" as="alternateBounds" />
          </mxGeometry>
        </mxCell>
        <mxCell id="w7caCeNGgn6BqTHNLdJ1-59" value="s" style="shape=partialRectangle;html=1;whiteSpace=wrap;connectable=0;strokeColor=inherit;overflow=hidden;fillColor=none;top=0;left=0;bottom=0;right=0;pointerEvents=1;" vertex="1" parent="w7caCeNGgn6BqTHNLdJ1-56">
          <mxGeometry x="112" width="54" height="32" as="geometry">
            <mxRectangle width="54" height="32" as="alternateBounds" />
          </mxGeometry>
        </mxCell>
        <mxCell id="w7caCeNGgn6BqTHNLdJ1-60" value="t" style="shape=partialRectangle;html=1;whiteSpace=wrap;connectable=0;strokeColor=inherit;overflow=hidden;fillColor=none;top=0;left=0;bottom=0;right=0;pointerEvents=1;" vertex="1" parent="w7caCeNGgn6BqTHNLdJ1-56">
          <mxGeometry x="166" width="56" height="32" as="geometry">
            <mxRectangle width="56" height="32" as="alternateBounds" />
          </mxGeometry>
        </mxCell>
        <mxCell id="w7caCeNGgn6BqTHNLdJ1-61" value="u" style="shape=partialRectangle;html=1;whiteSpace=wrap;connectable=0;strokeColor=inherit;overflow=hidden;fillColor=none;top=0;left=0;bottom=0;right=0;pointerEvents=1;" vertex="1" parent="w7caCeNGgn6BqTHNLdJ1-56">
          <mxGeometry x="222" width="56" height="32" as="geometry">
            <mxRectangle width="56" height="32" as="alternateBounds" />
          </mxGeometry>
        </mxCell>
        <mxCell id="w7caCeNGgn6BqTHNLdJ1-62" value="v" style="shape=partialRectangle;html=1;whiteSpace=wrap;connectable=0;strokeColor=inherit;overflow=hidden;fillColor=none;top=0;left=0;bottom=0;right=0;pointerEvents=1;" vertex="1" parent="w7caCeNGgn6BqTHNLdJ1-56">
          <mxGeometry x="278" width="56" height="32" as="geometry">
            <mxRectangle width="56" height="32" as="alternateBounds" />
          </mxGeometry>
        </mxCell>
        <mxCell id="w7caCeNGgn6BqTHNLdJ1-63" value="w" style="shape=partialRectangle;html=1;whiteSpace=wrap;connectable=0;strokeColor=inherit;overflow=hidden;fillColor=none;top=0;left=0;bottom=0;right=0;pointerEvents=1;" vertex="1" parent="w7caCeNGgn6BqTHNLdJ1-56">
          <mxGeometry x="334" width="54" height="32" as="geometry">
            <mxRectangle width="54" height="32" as="alternateBounds" />
          </mxGeometry>
        </mxCell>
        <mxCell id="w7caCeNGgn6BqTHNLdJ1-64" value="x" style="shape=partialRectangle;html=1;whiteSpace=wrap;connectable=0;strokeColor=inherit;overflow=hidden;fillColor=none;top=0;left=0;bottom=0;right=0;pointerEvents=1;" vertex="1" parent="w7caCeNGgn6BqTHNLdJ1-56">
          <mxGeometry x="388" width="56" height="32" as="geometry">
            <mxRectangle width="56" height="32" as="alternateBounds" />
          </mxGeometry>
        </mxCell>
        <mxCell id="w7caCeNGgn6BqTHNLdJ1-65" value="y" style="shape=partialRectangle;html=1;whiteSpace=wrap;connectable=0;strokeColor=inherit;overflow=hidden;fillColor=none;top=0;left=0;bottom=0;right=0;pointerEvents=1;" vertex="1" parent="w7caCeNGgn6BqTHNLdJ1-56">
          <mxGeometry x="444" width="56" height="32" as="geometry">
            <mxRectangle width="56" height="32" as="alternateBounds" />
          </mxGeometry>
        </mxCell>
        <mxCell id="w7caCeNGgn6BqTHNLdJ1-66" value="z" style="shape=partialRectangle;html=1;whiteSpace=wrap;connectable=0;strokeColor=inherit;overflow=hidden;fillColor=none;top=0;left=0;bottom=0;right=0;pointerEvents=1;" vertex="1" parent="w7caCeNGgn6BqTHNLdJ1-56">
          <mxGeometry x="500" width="56" height="32" as="geometry">
            <mxRectangle width="56" height="32" as="alternateBounds" />
          </mxGeometry>
        </mxCell>
        <mxCell id="w7caCeNGgn6BqTHNLdJ1-67" value="=" style="shape=partialRectangle;html=1;whiteSpace=wrap;connectable=0;strokeColor=inherit;overflow=hidden;fillColor=none;top=0;left=0;bottom=0;right=0;pointerEvents=1;" vertex="1" parent="w7caCeNGgn6BqTHNLdJ1-56">
          <mxGeometry x="556" width="56" height="32" as="geometry">
            <mxRectangle width="56" height="32" as="alternateBounds" />
          </mxGeometry>
        </mxCell>
        <mxCell id="w7caCeNGgn6BqTHNLdJ1-68" value="(" style="shape=partialRectangle;html=1;whiteSpace=wrap;connectable=0;strokeColor=inherit;overflow=hidden;fillColor=none;top=0;left=0;bottom=0;right=0;pointerEvents=1;" vertex="1" parent="w7caCeNGgn6BqTHNLdJ1-56">
          <mxGeometry x="612" width="54" height="32" as="geometry">
            <mxRectangle width="54" height="32" as="alternateBounds" />
          </mxGeometry>
        </mxCell>
        <mxCell id="w7caCeNGgn6BqTHNLdJ1-69" value=")" style="shape=partialRectangle;html=1;whiteSpace=wrap;connectable=0;strokeColor=inherit;overflow=hidden;fillColor=none;top=0;left=0;bottom=0;right=0;pointerEvents=1;" vertex="1" parent="w7caCeNGgn6BqTHNLdJ1-56">
          <mxGeometry x="666" width="56" height="32" as="geometry">
            <mxRectangle width="56" height="32" as="alternateBounds" />
          </mxGeometry>
        </mxCell>
        <mxCell id="w7caCeNGgn6BqTHNLdJ1-70" value="&lt;sup&gt;2&lt;/sup&gt;" style="shape=partialRectangle;html=1;whiteSpace=wrap;connectable=0;strokeColor=inherit;overflow=hidden;fillColor=none;top=0;left=0;bottom=0;right=0;pointerEvents=1;" vertex="1" parent="w7caCeNGgn6BqTHNLdJ1-56">
          <mxGeometry x="722" width="56" height="32" as="geometry">
            <mxRectangle width="56" height="32" as="alternateBounds" />
          </mxGeometry>
        </mxCell>
        <mxCell id="w7caCeNGgn6BqTHNLdJ1-71" value="&lt;font style=&quot;color: rgb(0, 0, 0);&quot;&gt;°&lt;/font&gt;" style="shape=partialRectangle;html=1;whiteSpace=wrap;connectable=0;strokeColor=inherit;overflow=hidden;fillColor=none;top=0;left=0;bottom=0;right=0;pointerEvents=1;" vertex="1" parent="w7caCeNGgn6BqTHNLdJ1-56">
          <mxGeometry x="778" width="56" height="32" as="geometry">
            <mxRectangle width="56" height="32" as="alternateBounds" />
          </mxGeometry>
        </mxCell>
        <mxCell id="w7caCeNGgn6BqTHNLdJ1-72" value="E" style="shape=partialRectangle;html=1;whiteSpace=wrap;connectable=0;strokeColor=inherit;overflow=hidden;fillColor=none;top=0;left=0;bottom=0;right=0;pointerEvents=1;" vertex="1" parent="w7caCeNGgn6BqTHNLdJ1-56">
          <mxGeometry x="834" width="54" height="32" as="geometry">
            <mxRectangle width="54" height="32" as="alternateBounds" />
          </mxGeometry>
        </mxCell>
        <mxCell id="w7caCeNGgn6BqTHNLdJ1-73" value="D" style="shape=partialRectangle;html=1;whiteSpace=wrap;connectable=0;strokeColor=inherit;overflow=hidden;fillColor=none;top=0;left=0;bottom=0;right=0;pointerEvents=1;" vertex="1" parent="w7caCeNGgn6BqTHNLdJ1-56">
          <mxGeometry x="888" width="56" height="32" as="geometry">
            <mxRectangle width="56" height="32" as="alternateBounds" />
          </mxGeometry>
        </mxCell>
        <mxCell id="w7caCeNGgn6BqTHNLdJ1-95" value="space" style="shape=partialRectangle;html=1;whiteSpace=wrap;connectable=0;strokeColor=inherit;overflow=hidden;fillColor=none;top=0;left=0;bottom=0;right=0;pointerEvents=1;" vertex="1" parent="w7caCeNGgn6BqTHNLdJ1-56">
          <mxGeometry x="944" width="56" height="32" as="geometry">
            <mxRectangle width="56" height="32" as="alternateBounds" />
          </mxGeometry>
        </mxCell>
        <mxCell id="w7caCeNGgn6BqTHNLdJ1-74" style="shape=tableRow;horizontal=0;startSize=0;swimlaneHead=0;swimlaneBody=0;strokeColor=inherit;top=0;left=0;bottom=0;right=0;collapsible=0;dropTarget=0;fillColor=none;points=[[0,0.5],[1,0.5]];portConstraint=eastwest;" vertex="1" parent="w7caCeNGgn6BqTHNLdJ1-1">
          <mxGeometry y="109" width="1000" height="31" as="geometry" />
        </mxCell>
        <mxCell id="w7caCeNGgn6BqTHNLdJ1-75" value="Code" style="shape=partialRectangle;html=1;whiteSpace=wrap;connectable=0;strokeColor=inherit;overflow=hidden;fillColor=none;top=0;left=0;bottom=0;right=0;pointerEvents=1;" vertex="1" parent="w7caCeNGgn6BqTHNLdJ1-74">
          <mxGeometry width="56" height="31" as="geometry">
            <mxRectangle width="56" height="31" as="alternateBounds" />
          </mxGeometry>
        </mxCell>
        <mxCell id="w7caCeNGgn6BqTHNLdJ1-76" value="17" style="shape=partialRectangle;html=1;whiteSpace=wrap;connectable=0;strokeColor=inherit;overflow=hidden;fillColor=none;top=0;left=0;bottom=0;right=0;pointerEvents=1;" vertex="1" parent="w7caCeNGgn6BqTHNLdJ1-74">
          <mxGeometry x="56" width="56" height="31" as="geometry">
            <mxRectangle width="56" height="31" as="alternateBounds" />
          </mxGeometry>
        </mxCell>
        <mxCell id="w7caCeNGgn6BqTHNLdJ1-77" value="18" style="shape=partialRectangle;html=1;whiteSpace=wrap;connectable=0;strokeColor=inherit;overflow=hidden;fillColor=none;top=0;left=0;bottom=0;right=0;pointerEvents=1;" vertex="1" parent="w7caCeNGgn6BqTHNLdJ1-74">
          <mxGeometry x="112" width="54" height="31" as="geometry">
            <mxRectangle width="54" height="31" as="alternateBounds" />
          </mxGeometry>
        </mxCell>
        <mxCell id="w7caCeNGgn6BqTHNLdJ1-78" value="19" style="shape=partialRectangle;html=1;whiteSpace=wrap;connectable=0;strokeColor=inherit;overflow=hidden;fillColor=none;top=0;left=0;bottom=0;right=0;pointerEvents=1;" vertex="1" parent="w7caCeNGgn6BqTHNLdJ1-74">
          <mxGeometry x="166" width="56" height="31" as="geometry">
            <mxRectangle width="56" height="31" as="alternateBounds" />
          </mxGeometry>
        </mxCell>
        <mxCell id="w7caCeNGgn6BqTHNLdJ1-79" value="20" style="shape=partialRectangle;html=1;whiteSpace=wrap;connectable=0;strokeColor=inherit;overflow=hidden;fillColor=none;top=0;left=0;bottom=0;right=0;pointerEvents=1;" vertex="1" parent="w7caCeNGgn6BqTHNLdJ1-74">
          <mxGeometry x="222" width="56" height="31" as="geometry">
            <mxRectangle width="56" height="31" as="alternateBounds" />
          </mxGeometry>
        </mxCell>
        <mxCell id="w7caCeNGgn6BqTHNLdJ1-80" value="21" style="shape=partialRectangle;html=1;whiteSpace=wrap;connectable=0;strokeColor=inherit;overflow=hidden;fillColor=none;top=0;left=0;bottom=0;right=0;pointerEvents=1;" vertex="1" parent="w7caCeNGgn6BqTHNLdJ1-74">
          <mxGeometry x="278" width="56" height="31" as="geometry">
            <mxRectangle width="56" height="31" as="alternateBounds" />
          </mxGeometry>
        </mxCell>
        <mxCell id="w7caCeNGgn6BqTHNLdJ1-81" value="22" style="shape=partialRectangle;html=1;whiteSpace=wrap;connectable=0;strokeColor=inherit;overflow=hidden;fillColor=none;top=0;left=0;bottom=0;right=0;pointerEvents=1;" vertex="1" parent="w7caCeNGgn6BqTHNLdJ1-74">
          <mxGeometry x="334" width="54" height="31" as="geometry">
            <mxRectangle width="54" height="31" as="alternateBounds" />
          </mxGeometry>
        </mxCell>
        <mxCell id="w7caCeNGgn6BqTHNLdJ1-82" value="23" style="shape=partialRectangle;html=1;whiteSpace=wrap;connectable=0;strokeColor=inherit;overflow=hidden;fillColor=none;top=0;left=0;bottom=0;right=0;pointerEvents=1;" vertex="1" parent="w7caCeNGgn6BqTHNLdJ1-74">
          <mxGeometry x="388" width="56" height="31" as="geometry">
            <mxRectangle width="56" height="31" as="alternateBounds" />
          </mxGeometry>
        </mxCell>
        <mxCell id="w7caCeNGgn6BqTHNLdJ1-83" value="24" style="shape=partialRectangle;html=1;whiteSpace=wrap;connectable=0;strokeColor=inherit;overflow=hidden;fillColor=none;top=0;left=0;bottom=0;right=0;pointerEvents=1;" vertex="1" parent="w7caCeNGgn6BqTHNLdJ1-74">
          <mxGeometry x="444" width="56" height="31" as="geometry">
            <mxRectangle width="56" height="31" as="alternateBounds" />
          </mxGeometry>
        </mxCell>
        <mxCell id="w7caCeNGgn6BqTHNLdJ1-84" value="25" style="shape=partialRectangle;html=1;whiteSpace=wrap;connectable=0;strokeColor=inherit;overflow=hidden;fillColor=none;top=0;left=0;bottom=0;right=0;pointerEvents=1;" vertex="1" parent="w7caCeNGgn6BqTHNLdJ1-74">
          <mxGeometry x="500" width="56" height="31" as="geometry">
            <mxRectangle width="56" height="31" as="alternateBounds" />
          </mxGeometry>
        </mxCell>
        <mxCell id="w7caCeNGgn6BqTHNLdJ1-85" value="26" style="shape=partialRectangle;html=1;whiteSpace=wrap;connectable=0;strokeColor=inherit;overflow=hidden;fillColor=none;top=0;left=0;bottom=0;right=0;pointerEvents=1;" vertex="1" parent="w7caCeNGgn6BqTHNLdJ1-74">
          <mxGeometry x="556" width="56" height="31" as="geometry">
            <mxRectangle width="56" height="31" as="alternateBounds" />
          </mxGeometry>
        </mxCell>
        <mxCell id="w7caCeNGgn6BqTHNLdJ1-86" value="27" style="shape=partialRectangle;html=1;whiteSpace=wrap;connectable=0;strokeColor=inherit;overflow=hidden;fillColor=none;top=0;left=0;bottom=0;right=0;pointerEvents=1;" vertex="1" parent="w7caCeNGgn6BqTHNLdJ1-74">
          <mxGeometry x="612" width="54" height="31" as="geometry">
            <mxRectangle width="54" height="31" as="alternateBounds" />
          </mxGeometry>
        </mxCell>
        <mxCell id="w7caCeNGgn6BqTHNLdJ1-87" value="28" style="shape=partialRectangle;html=1;whiteSpace=wrap;connectable=0;strokeColor=inherit;overflow=hidden;fillColor=none;top=0;left=0;bottom=0;right=0;pointerEvents=1;" vertex="1" parent="w7caCeNGgn6BqTHNLdJ1-74">
          <mxGeometry x="666" width="56" height="31" as="geometry">
            <mxRectangle width="56" height="31" as="alternateBounds" />
          </mxGeometry>
        </mxCell>
        <mxCell id="w7caCeNGgn6BqTHNLdJ1-88" value="29" style="shape=partialRectangle;html=1;whiteSpace=wrap;connectable=0;strokeColor=inherit;overflow=hidden;fillColor=none;top=0;left=0;bottom=0;right=0;pointerEvents=1;" vertex="1" parent="w7caCeNGgn6BqTHNLdJ1-74">
          <mxGeometry x="722" width="56" height="31" as="geometry">
            <mxRectangle width="56" height="31" as="alternateBounds" />
          </mxGeometry>
        </mxCell>
        <mxCell id="w7caCeNGgn6BqTHNLdJ1-89" value="30" style="shape=partialRectangle;html=1;whiteSpace=wrap;connectable=0;strokeColor=inherit;overflow=hidden;fillColor=none;top=0;left=0;bottom=0;right=0;pointerEvents=1;" vertex="1" parent="w7caCeNGgn6BqTHNLdJ1-74">
          <mxGeometry x="778" width="56" height="31" as="geometry">
            <mxRectangle width="56" height="31" as="alternateBounds" />
          </mxGeometry>
        </mxCell>
        <mxCell id="w7caCeNGgn6BqTHNLdJ1-90" value="31" style="shape=partialRectangle;html=1;whiteSpace=wrap;connectable=0;strokeColor=inherit;overflow=hidden;fillColor=none;top=0;left=0;bottom=0;right=0;pointerEvents=1;" vertex="1" parent="w7caCeNGgn6BqTHNLdJ1-74">
          <mxGeometry x="834" width="54" height="31" as="geometry">
            <mxRectangle width="54" height="31" as="alternateBounds" />
          </mxGeometry>
        </mxCell>
        <mxCell id="w7caCeNGgn6BqTHNLdJ1-91" value="32" style="shape=partialRectangle;html=1;whiteSpace=wrap;connectable=0;strokeColor=inherit;overflow=hidden;fillColor=none;top=0;left=0;bottom=0;right=0;pointerEvents=1;" vertex="1" parent="w7caCeNGgn6BqTHNLdJ1-74">
          <mxGeometry x="888" width="56" height="31" as="geometry">
            <mxRectangle width="56" height="31" as="alternateBounds" />
          </mxGeometry>
        </mxCell>
        <mxCell id="w7caCeNGgn6BqTHNLdJ1-96" value="33" style="shape=partialRectangle;html=1;whiteSpace=wrap;connectable=0;strokeColor=inherit;overflow=hidden;fillColor=none;top=0;left=0;bottom=0;right=0;pointerEvents=1;" vertex="1" parent="w7caCeNGgn6BqTHNLdJ1-74">
          <mxGeometry x="944" width="56" height="31" as="geometry">
            <mxRectangle width="56" height="31" as="alternateBounds" />
          </mxGeometry>
        </mxCell>
      </root>
    </mxGraphModel>
  </diagram>
</mxfile>
